
<?xml version="1.0" encoding="utf-8"?>
<!-- Generator: Adobe Illustrator 26.3.1, SVG Export Plug-In . SVG Version: 6.00 Build 0)  -->
<svg version="1.1" id="Layer_1" xmlns="http://www.w3.org/2000/svg" xmlns:xlink="http://www.w3.org/1999/xlink" x="0px" y="0px"
	 viewBox="0 0 512 512" style="enable-background:new 0 0 512 512;" xml:space="preserve">
<style type="text/css">
	.st0{fill:#F66565;}
	.st1{fill:#F8979B;}
</style>
<path class="st0" d="M256,0c17.7,0,32,14.3,32,32v34.7c80.4,13.5,143.9,77,157.3,157.4H480c17.7,0,32,14.3,32,32s-14.3,32-32,32
	h-34.7c-13.4,80.4-76.9,143.9-157.3,157.3V480c0,17.7-14.3,32-32,32s-32-14.3-32-32v-34.7C143.6,431.9,80.1,368.4,66.7,288H32
	c-17.7,0-32-14.3-32-32s14.3-32,32-32h34.7c13.5-80.4,77-143.9,157.4-157.4V32C224,14.3,238.3,0,256,0z M128,256
	c0,70.7,57.3,128,128,128s128-57.3,128-128s-57.3-128-128-128S128,185.3,128,256z"/>
<circle class="st1" cx="256" cy="256" r="80"/>
</svg>
